<svg xmlns="http://www.w3.org/2000/svg" viewBox="0 0 33.51 33.41"><defs><style>.e0855447-88dd-4e25-ad6b-ec585ef04482{fill:#44a833}</style></defs><g id="a307dd19-ba27-4e93-970a-76771158a2c9" data-name="Layer 2"><g id="e29b3fa6-0566-4d7d-8875-586c875c7d25" data-name="Layer 1"><path class="e0855447-88dd-4e25-ad6b-ec585ef04482" d="M6.21 25.57v-.12a24.51 24.51 0 01.23-2.87v-.09h-.09a22.7 22.7 0 01-2.58-1.25l-.11-.06-.05.11a22 22 0 00-1.37 3.46v.11h.12a22.54 22.54 0 003.75.7zM8.79 8.63a19.61 19.61 0 00-2.17.15c.09.73.22 1.45.38 2.17a11.71 11.71 0 011.79-2.32zM6.21 26.44v-.1h-.1a22.65 22.65 0 01-3.21-.54l-.28-.06.16.24a16.73 16.73 0 003.49 3.82l.22.18v-.28a31.51 31.51 0 01-.28-3.26zM11.4.9a17 17 0 00-3.66 1.78 21.64 21.64 0 012.53.6A25.89 25.89 0 0111.4.9zm5.41-.9a17 17 0 00-1.9.11 24.44 24.44 0 012.53 2l.67.61-.65.63a21 21 0 00-1.57 1.68l-.25.3a11.9 11.9 0 011.2-.07 11.38 11.38 0 11-5.98 21.14 22 22 0 01-2.57.15h-1.2a30.49 30.49 0 00.37 4A16.7 16.7 0 1016.81 0z"/><path class="e0855447-88dd-4e25-ad6b-ec585ef04482" d="M14.6 4q.49-.6 1-1.14A21 21 0 0013.15 1a22.66 22.66 0 00-1.39 2.79 22.54 22.54 0 012.24.92 9.74 9.74 0 01.6-.71zM3.26 13.48l.06.1.1-.07A22.76 22.76 0 015.84 12l.08-.05v-.08a23.54 23.54 0 01-.57-2.92v-.13h-.12a21.37 21.37 0 00-3.63 1h-.11v.11a23.87 23.87 0 001.77 3.55zm-.19 1.62l-.1.07a23.13 23.13 0 00-2.53 2.42l-.08.08.09.08a21.56 21.56 0 002.78 2.07l.1.07.06-.11a23.36 23.36 0 011.47-2.29v-.07l-.06-.07a23.71 23.71 0 01-1.66-2.15zm6.55 10.53h.29l-.23-.18a11.18 11.18 0 01-2.29-2.56l-.18-.08v.16A24.08 24.08 0 007 25.52v.11h1.3c.4 0 .87.02 1.32 0zM9.06 7.18a23.19 23.19 0 01.67-2.44 23 23 0 00-3.2-.67 20.89 20.89 0 000 3.26c.82-.09 1.67-.14 2.53-.15zm1.61-.06A11.52 11.52 0 0113 6c-.59-.28-1.18-.53-1.8-.76-.2.61-.37 1.24-.53 1.88zM2.9 20.69l-.09-.06a24 24 0 01-2.48-1.79l-.22-.18v.28a16.41 16.41 0 001.32 4.64l.11.26.1-.27a22.63 22.63 0 011.18-2.79zM5.05 4.84a16.66 16.66 0 00-2.59 3.32 23.73 23.73 0 012.62-.62 24.27 24.27 0 01-.03-2.7zm.5 11.71v-.29a11.41 11.41 0 01.51-3l.1-.26-.25.14c-.65.38-1.3.8-1.92 1.24l-.09.07.07.09c.43.61.9 1.21 1.39 1.78zm.11 1.73v-.29l-.17.24a21.44 21.44 0 00-1.28 2l-.06.1.1.06a23.18 23.18 0 002.18 1.07l.27.12-.12-.27a11.22 11.22 0 01-.92-3.03zm-3.25-4l.08-.06-.06-.09A22.58 22.58 0 011 11.52l-.1-.27-.09.28A16.53 16.53 0 000 16.22v.29l.2-.21a24.71 24.71 0 012.21-2.02z"/></g></g></svg>