<?xml version="1.0" encoding="UTF-8"?>
<!-- Created for SWAN: swan.web.cern.ch -->
<!-- Copyright CERN -->
<svg id="svg4206" width="522.77" height="452.85" version="1.1" xmlns="http://www.w3.org/2000/svg" xmlns:cc="http://creativecommons.org/ns#" xmlns:dc="http://purl.org/dc/elements/1.1/" xmlns:rdf="http://www.w3.org/1999/02/22-rdf-syntax-ns#" xmlns:xlink="http://www.w3.org/1999/xlink">
 <defs id="defs4208">
  <linearGradient id="linearGradient3119-3-1" x1="333.77" x2="334.47" y1="891.35" y2="814.53" gradientTransform="matrix(1.9709 0 0 1.8218 -192.57 -584.21)" gradientUnits="userSpaceOnUse">
   <stop id="stop3115-3-5" stop-color="#f60" offset="0"/>
   <stop id="stop3117-6-5" stop-color="#f60" stop-opacity="0" offset="1"/>
  </linearGradient>
 </defs>
 <metadata id="metadata4211">
  <rdf:RDF>
   <cc:Work rdf:about="">
    <dc:format>image/svg+xml</dc:format>
    <dc:type rdf:resource="http://purl.org/dc/dcmitype/StillImage"/>
    <dc:title/>
   </cc:Work>
  </rdf:RDF>
 </metadata>
 <g id="layer1" transform="translate(-84.039 -27.748)">
  <g id="g4859" transform="translate(-169.1 -709.51)">
   <path id="path4344-1-2-7" d="m740.54 844.38c-9.4648-9.2758-10.211-11.212-8.3984-21.779l1.4274-8.3202 12.92 20.472c11.013 17.451 6.8744 15.366 3.9772 16.437-1.7898 0.6618-4.5872-1.578-9.926-6.8102z" fill="#f60"/>
   <path id="path108-5-2-3" d="m676.85 1024.4c7.4228-8.2686 51.155-15.89 4.6828-66.596l-0.05-0.05-71.785-71.497c-24.2-29.834-30.09-71.577-13.983-106.58 11.461-24.854 37.385-41.902 64.761-42.429 27.536-0.5428 57.081 21.056 67.648 46.516 0.6548 1.5884 6.5286 15.874 4.7564 22.165-2.8936 10.273-6.3958 13.051-13.358 19.764-23.828-8.321-36.139-23.892-57.46-30.107-13.314-4.828-28.162 11.846-20.587 45.801 3.444 16.194 50.412 57.497 76.573 81.267l20.462 19.982c16.071 16.071 37.395 46.613 37.395 94.661 0 77.819-44.508 149.74-124.5 149.74l-182.68 0.102c111.25-36.828 277.18 20.161 257.18-109.84 20-30 0-20-49.054-52.892z" fill="#0053a1"/>
   <path id="path4112-8-3-8" d="m551.65 1118.3c26.911-26.916 39.804-40.077 39.804-40.63 0-0.4494-0.3664-1.2106-0.8134-1.6914l-0.8134-0.8734h-65.532-65.532l-278.95-278.95h56.967 56.967v25.112 25.112l1.051 0.8276c1.3004 1.023 1.7975 1.0332 2.9947 0.064l0.94244-0.7624 0.115-13.804 0.115-13.803h57.85 57.85l6e-3 46.392c4e-3 36.468 0.115 46.605 0.50826 47.39 0.63852 1.268 2.7928 1.5788 3.9133 0.5644 0.73046-0.6614 0.76112-1.5534 0.76112-22.575v-21.887h58.065 58.065v60.63c0 66.774-0.188 61.884 2.3944 61.884 2.494 0 2.3944 0.996 2.3944-23.973v-22.718h50.882 50.881v42.846c0 42.742 0 42.849 0.8276 43.898 0.9936 1.2642 2.449 1.367 3.5626 0.2528 0.7726-0.7726 0.7982-1.3302 0.7982-17.497v-16.699l2.289 0.7726c3.091 1.0432 7.8796 1.477 11.652 1.0548 11.788-1.319 20.915-8.4744 24.862-19.491 1.1442-3.1952 1.4468-11.63 0.5428-15.157-1.7036-6.6492 0.8492-3.7904-39.568-44.323-37.655-37.763-39.319-39.553-43.717-46.999-13.905-23.542-17.951-50.218-11.514-75.915 5.0474-20.148 15.152-34.987 31.11-45.686 7.0416-4.721 16.641-8.7208 25.435-10.598 5.0624-1.0804 15.129-1.4684 20.851-0.8032 20.892 2.4288 40.165 15.038 49.939 32.672 1.134 2.046 2.4776 4.7496 2.9858 6.008 1.152 2.8528 2.1528 8.4634 2.1528 12.074v2.7412h-28.833c-31.438 0-31.22 0-36.312 2.324-5.257 2.4068-9.6188 6.7512-12.285 12.236-4.1224 8.4794-3.7228 17.475 1.1264 25.341 0.9118 1.4788 16.357 17.235 47.336 48.288 25.291 25.351 47.241 47.529 48.778 49.285 20.825 23.795 34.803 50.912 40.009 77.619 8.33 42.734-3.8924 89.495-32.857 125.71-4.5706 5.7142-14.648 15.99-20.091 20.485l-3.705 3.0602h-108.03-108.03l39.805-39.812z" fill="none"/>
   <path id="path4114-3-2-1" d="m551.65 1118.3c26.911-26.916 39.804-40.077 39.804-40.63 0-0.4494-0.3664-1.2106-0.8134-1.6914l-0.8134-0.8734h-65.532-65.532l-278.95-278.95h56.967 56.967v25.112 25.112l1.051 0.8276c1.3004 1.023 1.7975 1.0332 2.9947 0.064l0.94244-0.7624 0.115-13.804 0.115-13.803h57.85 57.85l6e-3 46.392c4e-3 36.468 0.115 46.605 0.50826 47.39 0.63852 1.268 2.7928 1.5788 3.9133 0.5644 0.73046-0.6614 0.76112-1.5534 0.76112-22.575v-21.887h58.065 58.065v60.63c0 66.774-0.188 61.884 2.3944 61.884 2.494 0 2.3944 0.996 2.3944-23.973v-22.718h50.882 50.881v42.846c0 42.742 0 42.849 0.8276 43.898 0.9936 1.2642 2.449 1.367 3.5626 0.2528 0.7726-0.7726 0.7982-1.3302 0.7982-17.497v-16.699l2.289 0.7726c3.091 1.0432 7.8796 1.477 11.652 1.0548 11.788-1.319 20.915-8.4744 24.862-19.491 1.1442-3.1952 1.4468-11.63 0.5428-15.157-1.7036-6.6492 0.8492-3.7904-39.568-44.323-37.655-37.763-39.319-39.553-43.717-46.999-13.905-23.542-17.951-50.218-11.514-75.915 5.0474-20.148 15.152-34.987 31.11-45.686 7.0416-4.721 16.641-8.7208 25.435-10.598 5.0624-1.0804 15.129-1.4684 20.851-0.8032 20.892 2.4288 40.165 15.038 49.939 32.672 1.134 2.046 2.4776 4.7496 2.9858 6.008 1.152 2.8528 2.1528 8.4634 2.1528 12.074v2.7412h-28.833c-31.438 0-31.22 0-36.312 2.324-5.257 2.4068-9.6188 6.7512-12.285 12.236-4.1224 8.4794-3.7228 17.475 1.1264 25.341 0.9118 1.4788 16.357 17.235 47.336 48.288 25.291 25.351 47.241 47.529 48.778 49.285 20.825 23.795 34.803 50.912 40.009 77.619 8.33 42.734-3.8924 89.495-32.857 125.71-4.5706 5.7142-14.648 15.99-20.091 20.485l-3.705 3.0602h-108.03-108.03l39.805-39.812z" fill="none"/>
   <path id="path4116-8-0-6" d="m551.65 1118.3c26.911-26.916 39.804-40.077 39.804-40.63 0-0.4494-0.3664-1.2106-0.8134-1.6914l-0.8134-0.8734h-65.532-65.532l-278.95-278.95h56.967 56.967v25.112 25.112l1.051 0.8276c1.3004 1.023 1.7975 1.0332 2.9947 0.064l0.94244-0.7624 0.115-13.804 0.115-13.803h57.85 57.85l6e-3 46.392c4e-3 36.468 0.115 46.605 0.50826 47.39 0.63852 1.268 2.7928 1.5788 3.9133 0.5644 0.73046-0.6614 0.76112-1.5534 0.76112-22.575v-21.887h58.065 58.065v60.63c0 66.774-0.188 61.884 2.3944 61.884 2.494 0 2.3944 0.996 2.3944-23.973v-22.718h50.882 50.881v42.846c0 42.742 0 42.849 0.8276 43.898 0.9936 1.2642 2.449 1.367 3.5626 0.2528 0.7726-0.7726 0.7982-1.3302 0.7982-17.497v-16.699l2.289 0.7726c3.091 1.0432 7.8796 1.477 11.652 1.0548 11.788-1.319 20.915-8.4744 24.862-19.491 1.1442-3.1952 1.4468-11.63 0.5428-15.157-1.7036-6.6492 0.8492-3.7904-39.568-44.323-37.655-37.763-39.319-39.553-43.717-46.999-13.905-23.542-17.951-50.218-11.514-75.915 5.0474-20.148 15.152-34.987 31.11-45.686 7.0416-4.721 16.641-8.7208 25.435-10.598 5.0624-1.0804 15.129-1.4684 20.851-0.8032 20.892 2.4288 40.165 15.038 49.939 32.672 1.134 2.046 2.4776 4.7496 2.9858 6.008 1.152 2.8528 2.1528 8.4634 2.1528 12.074v2.7412h-28.833c-31.438 0-31.22 0-36.312 2.324-5.257 2.4068-9.6188 6.7512-12.285 12.236-4.1224 8.4794-3.7228 17.475 1.1264 25.341 0.9118 1.4788 16.357 17.235 47.336 48.288 25.291 25.351 47.241 47.529 48.778 49.285 20.825 23.795 34.803 50.912 40.009 77.619 8.33 42.734-3.8924 89.495-32.857 125.71-4.5706 5.7142-14.648 15.99-20.091 20.485l-3.705 3.0602h-108.03-108.03l39.805-39.812z" fill="none"/>
   <path id="path4833-6-5-2" d="m719.26 821.42c0.102-0.07 0.154-0.082 0.118-0.026s-0.118 0.112-0.184 0.128c-0.064 0.02-0.036-0.03 0.066-0.1z" fill="#0053a1"/>
   <g id="layer1-9-4-7-9" transform="matrix(-1.2882 0 0 1.512 7970.8 -8475.1)">
    <path id="path4031-0-1-6" d="m5666.8 6391.2c-28.74-4.0765-55.303-23.875-64.825-42.103-1.5927-3.0489-1.6989-2.9341-2.3162-6.2298-4.6609-24.884 18.896-49.8 55.45-58.65l4.7106-1.1403 1.202-7.2841c2.3122-14.009 9.4314-24.144 23.996-34.159 18.339-12.611 47.398-19.145 73.048-16.426l7.8439 0.8316 7.1472-5.0972c11.657-8.3135 29.591-15.336 46.631-18.261 44.46-7.6309 91.444 6.3932 112.2 33.492 9.5197 13.77 9.6082 22.649 10.18 37.133l5.3637 2.3556c22.569 9.9121 36.924 24.101 42.34 41.852 2.0679 6.7771 1.5286 20.237-1.058 26.41-9.4991 22.671-33.788 38.946-68.927 46.187l-9.0201 1.8588-118.4 0.1234c-102.27 0.1067-119.38-0.015-125.57-0.8944zm245.09-15.732c27.392-4.5495 48.354-18.698 54.288-36.644 2.0817-6.2943 1.5744-18.253-0.9994-23.56-7.361-15.179-24.82-27.118-47.05-32.172-3.1366-0.7132-3.821-1.1632-3.4277-2.2537 5.4923-15.224 4.9868-24.661-1.8966-35.408-8.616-13.452-27.706-24.232-49.699-28.066-8.2066-1.4303-25.504-1.5738-34.853-0.2892-8.587 1.1799-23.494 5.9046-31 9.8254-6.7768 3.5395-13.896 9.2391-17.952 14.373-1.9339 2.4477-3.2963 3.4568-4.3525 3.2239-0.8457-0.1864-4.9972-1.1558-9.2258-2.154-15.249-3.5998-32.989-2.773-48.439 2.2573-14.673 4.7772-27.755 15.725-31.613 26.455-2.5314 7.0393-1.3982 17.344 2.6824 24.394 0.3784 0.6537-1.3375 0.8863-6.9736 0.9456-25.636 0.2697-49.003 12.452-56.704 29.561-1.2654 2.8118-1.7981 6.1944-1.7502 11.115 0.1145 11.789 6.0932 20.701 19.375 28.881 7.7208 4.7551 15.481 7.6709 25.527 9.5912 5.6818 1.086 14.905 1.1792 121.05 1.2236 111.63 0.047 115.13 0.01 123.01-1.2988z" fill="#0053a1"/>
   </g>
   <rect id="rect4069-5-3-5" x="360.7" y="1044" width="65.998" height="96.996" fill="#0053a1"/>
   <rect id="rect4069-4-0-9-2-8" x="500.67" y="1013.3" width="65.961" height="127.71" fill="#0053a1"/>
   <rect id="rect4069-4-4-1-9-5" x="570.69" y="1061.7" width="66.108" height="79.29" fill="#0053a1"/>
   <path id="path4342-4-0-8" d="m430.68 1059.1v-81.922h33.005 33.005v81.922 81.922h-33.005-33.005v-81.922z" fill="url(#linearGradient3119-3-1)"/>
   <path id="path4825-6-6-8" d="m748.99 833.02s3.2634 4.6602 4.0628 5.9844c1.1172 1.7394 1.7548 3.0628 2.3032 4.9928 0.6258 4.0932 0.3704 6.3906-1.7544 7.884-0.5354 0.3676-7.5418 1.0158-12.344-2.9288-3.3284-2.7338-6.6666-5.781-16.977-16.271l-8.0104-8.1504c4.1626-5.5524 4.7812-12.154 1.5986-20.005-6.8166-16.816-13.08-31.886 12.95-0.7076 0.255 0.3056 14.006 22.829 12.676 20.287zm-5.0192 13.909c4.3828 3.4746 8.0028 2.142 8.1466 0.6734 0.6326-3.9684-3.8464-8.8888-3.9186-9.2864-1.1428-1.702-14.861-23.812-15.781-25.511-0.06-0.112 0.643 0.4908 0.598 2.1948-0.158 5.9564-0.4912 8.8242-1.4788 13.024-0.4978 2.1184-0.5906 2.774-0.4998 3.5326 0.2076 1.733 1.1356 3.2834 3.7174 6.2096 1.6534 1.874 7.8954 8.0798 9.2158 9.1624z" fill="#fff"/>
   <path id="path4344-0-7-5" d="m734.46 843.77c-9.4648-9.276-17.431-14.139-9.6612-21.526l10.266-11.856 15.698 23.755c5.8078 8.7888 6.6334 14.431 5.4926 17.484-3.9008 5.0878-9.6234 1.2318-13.626-1.1918-2.069-1.2484-3.3328-2.578-8.1694-6.6652z" fill="#f60"/>
   <g id="g78-8-7-9-5" transform="matrix(5.402 0 0 -4.3808 533.29 1076.2)" fill="#fff" stroke="#fff" stroke-width="1.4249">
    <path id="path80-1-01-9-6" d="m0.087115-0.12271h-0.034l-2.357-7.561h4.746l-2.355 7.561zm-0.221 0.306h0.407l3.832-12.105h-0.34l-1.238 3.934h-4.932l-1.238-3.934h-0.339l3.848 12.105z" fill="#fff" stroke="#fff" stroke-width="1.4249"/>
   </g>
   <g id="g82-6-7-7-5" transform="matrix(5.7903 0 0 -4.3648 589.32 1073)" stroke="#fff" stroke-width="1.4249">
    <path id="path84-4-7-1-6" d="m-0.88223-0.56982h0.56l5.747-11.562h0.033v11.562h0.34v-12.104h-0.492l-5.815 11.798h-0.034v-11.798h-0.339v12.104z" fill="#003984" stroke="#fff" stroke-width="1.4249"/>
   </g>
   <g id="g74-3-2-9-5" transform="matrix(4.8079 0 0 -4.6129 431.66 1110.7)" stroke="#fff" stroke-width="1.4249">
    <path id="path76-1-7-9-4" d="m1.4311 7.7314h0.30858l2.3294-11.123h0.031859l2.3148 11.123h0.43146l2.2684-11.123h0.031859l2.3758 11.123h0.30858l-2.4996-11.644h-0.40234l-2.2984 11.22h-0.030949l-2.3303-11.22h-0.38595l-2.4532 11.644z" fill="#fff" stroke="#fff" stroke-width="1.3334"/>
   </g>
   <path id="path72-3-3-3-8" d="m374.61 1106.1h1.901v2.9366c0 10.341 6.0608 17.165 16.589 17.165 9.3764 0 17.623-5.4028 17.623-17.635 0-10.331-8.7222-13.273-16.589-15.834-10.232-3.3166-17.814-6.3484-17.814-17.92 0-6.544 4.171-16.875 17.439-16.875 13.173 0 17.629 9.0052 17.629 16.97v1.4266h-1.8954v-1.6168c0-9.575-6.2566-15.079-15.924-15.079-10.428 0-15.353 7.7802-15.353 15.555 0 21.047 34.408 10.431 34.408 33.844 0 8.8256-5.4067 18.871-19.435 18.871-13.083 0-18.579-9.2904-18.579-18.871v-2.9366z" fill="#fff" stroke="#fff" stroke-width="7.9683"/>
  </g>
 </g>
</svg>
